<svg id="Layer_1" xmlns="http://www.w3.org/2000/svg" viewBox="0 0 552 115.9"><style>.st0{fill:#fff}.st1{fill:#ffc200}.st2{fill:#12637f}.st3{fill:#093142}.st4{fill:#1b94bf}</style><path class="st0" d="M184.7 82.2c-1.6.5-5.9 1.3-11.2 1.3-11.4 0-22.2-6-22.2-23.8v-9.5c0-17.8 10.8-23.8 22.2-23.8 5.3 0 9.6.8 11.2 1.3 1 .3 1.6.6 1.6 1.7v7.3c0 .9-.5 1.5-1.4 1.5h-.2c-2.9-.2-7-.6-11.1-.6-5.2 0-9.3 2.7-9.3 12.7v9.5c0 10 4.1 12.7 9.3 12.7 4.1 0 8.2-.4 11.1-.6h.2c1 0 1.4.6 1.4 1.5v7.3c.1.8-.5 1.2-1.6 1.5zm52.5.6h-9.9c-.8 0-1.3-.7-1.3-1.5V63.1h-16.3v18.2c0 .8-.6 1.5-1.4 1.5h-9.9c-.8 0-1.5-.7-1.5-1.5V43c0-13.5 8.2-16.5 18.2-16.5h5.5c10 0 18.1 3 18.1 16.5v38.2c0 .9-.7 1.6-1.5 1.6zM225.9 43c0-4.1-1.2-5.4-5.4-5.4H215c-4.1 0-5.4 1.3-5.4 5.4v9.4h16.3V43zm38.6 40.5c-5.9 0-10.3-.7-14.2-1.6-.8-.2-1.5-.7-1.5-1.5V73c0-1.1.6-1.4 1.4-1.4h.2c3.1.3 11.3.9 14.2.9 5.2 0 6.7-1.6 6.7-5.3 0-2.2-1-3.4-4.9-5.7L256 55.3c-7-4.1-8.8-8.8-8.8-14.3 0-8.3 4.6-14.6 19.2-14.6 5.5 0 13 .9 15.9 1.6.6.2 1.1.5 1.1 1.4V37c0 .7-.3 1.3-1.3 1.3h-.2c-2.1-.2-10.8-.8-15.9-.8-4.3 0-5.9 1.3-5.9 4 0 2.1 1 3.1 5 5.3l9.6 5.2c7.9 4 10.3 9 10.3 15 0 8-5.3 16.5-20.5 16.5zm65.4-45.9h-12.1v43.6c0 .8-.7 1.5-1.5 1.5h-9.8c-.8 0-1.5-.7-1.5-1.5V37.6h-12.2c-.8 0-1.5-.6-1.5-1.4v-7.7c0-.8.7-1.4 1.5-1.4H330c.8 0 1.6.6 1.6 1.4v7.7c-.1.8-.8 1.4-1.7 1.4zm40.5 44.9c-2.5.5-8.3 1-12.2 1-9.7 0-18.3-2.5-18.3-16.1V28.6c0-.8.7-1.5 1.5-1.5h9.8c.8 0 1.5.7 1.5 1.5v38.8c0 3.9 1.3 5.1 4.8 5.1h12.9c.8 0 1.5.7 1.5 1.5v7c0 .9-.4 1.3-1.5 1.5zm41 0c-2.6.4-6.5 1-14.5 1-9.7 0-18.2-2.5-18.2-16.1v-25c0-13.6 8.6-16 18.3-16 8.1 0 11.8.6 14.5 1 1 .2 1.5.5 1.5 1.5v7c0 .8-.7 1.5-1.5 1.5h-15.2c-3.5 0-4.8 1.2-4.8 5.1v6.8h19.4c.8 0 1.5.7 1.5 1.5v7.1c0 .8-.7 1.5-1.5 1.5h-19.4v8c0 3.9 1.3 5.1 4.8 5.1h15.2c.8 0 1.5.7 1.5 1.5v7c-.1.9-.5 1.3-1.6 1.5z"/><path class="st1" d="M456.7 82.2c-1.6.5-5.9 1.3-11.2 1.3-11.4 0-22.2-6-22.2-23.8v-9.5c0-17.8 10.8-23.8 22.2-23.8 5.3 0 9.6.8 11.2 1.3 1 .3 1.6.6 1.6 1.7v7.3c0 .9-.4 1.5-1.4 1.5h-.2c-2.8-.2-7-.6-11.1-.6-5.2 0-9.3 2.7-9.3 12.7v9.5c0 10 4.1 12.7 9.3 12.7 4.1 0 8.3-.4 11.1-.6h.2c1 0 1.4.6 1.4 1.5v7.3c.1.8-.5 1.2-1.6 1.5zm27.5 1.3c-5.9 0-10.3-.7-14.2-1.6-.8-.2-1.5-.7-1.5-1.5V73c0-1.1.6-1.4 1.3-1.4h.2c3.1.3 11.3.9 14.2.9 5.2 0 6.7-1.6 6.7-5.3 0-2.2-1-3.4-5-5.7l-10.3-6.2c-7-4.1-8.8-8.8-8.8-14.3 0-8.3 4.7-14.6 19.2-14.6 5.5 0 13 .9 15.9 1.6.6.2 1.1.5 1.1 1.4V37c0 .7-.3 1.3-1.3 1.3h-.2c-2.1-.2-10.8-.8-15.9-.8-4.3 0-5.8 1.3-5.8 4 0 2.1 1 3.1 5 5.3l9.6 5.2c7.8 4.2 10.1 9.1 10.1 15.2.1 7.8-5.1 16.3-20.3 16.3zm46.3 0c-5.9 0-10.3-.7-14.2-1.6-.8-.2-1.5-.7-1.5-1.5V73c0-1.1.6-1.4 1.3-1.4h.2c3.1.3 11.3.9 14.2.9 5.2 0 6.7-1.6 6.7-5.3 0-2.2-1-3.4-5-5.7L522 55.3c-7-4.1-8.8-8.8-8.8-14.3 0-8.3 4.7-14.6 19.2-14.6 5.5 0 13 .9 15.9 1.6.6.2 1.1.5 1.1 1.4V37c0 .7-.3 1.3-1.3 1.3h-.2c-2.1-.2-10.8-.8-15.9-.8-4.3 0-5.8 1.3-5.8 4 0 2.1 1 3.1 5 5.3l9.6 5.2c7.9 4 10.2 9 10.2 15 0 8-5.3 16.5-20.5 16.5z"/><path class="st2" d="M55.5 54.4L23.1 86.8l-21.5-30C.3 55.5.3 53.3 1.6 52l21.5-30 32.4 32.4z"/><path class="st3" d="M91.1 90.1l-30 21.5c-1.3 1.3-3.5 1.3-4.8 0l-30-21.5 32.4-32.4 32.4 32.4z"/><path class="st4" d="M115.9 56.8l-21.5 30-32.5-32.4L94.3 22l21.5 30c1.4 1.3 1.4 3.5.1 4.8z"/><path class="st1" d="M87.7 2H74.1v8.2h-7V2h-17v8.2h-7V2H29.7c-1.9 0-3.4 1.5-3.4 3.4v13.1h.2l-.2.2 32.4 32.4 32.4-32.4-.2-.2h.2V5.4c0-1.9-1.5-3.4-3.4-3.4z"/></svg>