<?xml version="1.0" encoding="utf-8"?>
<!-- Generator: Adobe Illustrator 19.2.1, SVG Export Plug-In . SVG Version: 6.00 Build 0)  -->
<svg version="1.1" id="Layer_1" xmlns="http://www.w3.org/2000/svg" xmlns:xlink="http://www.w3.org/1999/xlink" x="0px" y="0px"
	 viewBox="0 0 552 115.9" style="enable-background:new 0 0 552 115.9;" xml:space="preserve">
<style type="text/css">
	.st0{fill:#FFFFFF;}
	.st1{fill:#FFC200;}
	.st2{fill:#12637F;}
	.st3{fill:#093142;}
	.st4{fill:#1B94BF;}
</style>
<g>
	<path class="st0" d="M184.7,82.2c-1.6,0.5-5.9,1.3-11.2,1.3c-11.4,0-22.2-6-22.2-23.8v-9.5c0-17.8,10.8-23.8,22.2-23.8
		c5.3,0,9.6,0.8,11.2,1.3c1,0.3,1.6,0.6,1.6,1.7v7.3c0,0.9-0.5,1.5-1.4,1.5c-0.1,0-0.1,0-0.2,0c-2.9-0.2-7-0.6-11.1-0.6
		c-5.2,0-9.3,2.7-9.3,12.7v9.5c0,10,4.1,12.7,9.3,12.7c4.1,0,8.2-0.4,11.1-0.6c0.1,0,0.1,0,0.2,0c1,0,1.4,0.6,1.4,1.5v7.3
		C186.4,81.5,185.8,81.9,184.7,82.2z"/>
	<path class="st0" d="M237.2,82.8h-9.9c-0.8,0-1.3-0.7-1.3-1.5V63.1h-16.3v18.2c0,0.8-0.6,1.5-1.4,1.5h-9.9c-0.8,0-1.5-0.7-1.5-1.5
		V43c0-13.5,8.2-16.5,18.2-16.5h5.5c10,0,18.1,3,18.1,16.5v38.2C238.7,82.1,238,82.8,237.2,82.8z M225.9,43c0-4.1-1.2-5.4-5.4-5.4
		H215c-4.1,0-5.4,1.3-5.4,5.4v9.4h16.3V43z"/>
	<path class="st0" d="M264.5,83.5c-5.9,0-10.3-0.7-14.2-1.6c-0.8-0.2-1.5-0.7-1.5-1.5V73c0-1.1,0.6-1.4,1.4-1.4c0.1,0,0.1,0,0.2,0
		c3.1,0.3,11.3,0.9,14.2,0.9c5.2,0,6.7-1.6,6.7-5.3c0-2.2-1-3.4-4.9-5.7L256,55.3c-7-4.1-8.8-8.8-8.8-14.3c0-8.3,4.6-14.6,19.2-14.6
		c5.5,0,13,0.9,15.9,1.6c0.6,0.2,1.1,0.5,1.1,1.4V37c0,0.7-0.3,1.3-1.3,1.3c0,0-0.1,0-0.2,0c-2.1-0.2-10.8-0.8-15.9-0.8
		c-4.3,0-5.9,1.3-5.9,4c0,2.1,1,3.1,5,5.3l9.6,5.2C282.6,56,285,61,285,67C285,75,279.7,83.5,264.5,83.5z"/>
	<path class="st0" d="M329.9,37.6h-12.1v43.6c0,0.8-0.7,1.5-1.5,1.5h-9.8c-0.8,0-1.5-0.7-1.5-1.5V37.6h-12.2c-0.8,0-1.5-0.6-1.5-1.4
		v-7.7c0-0.8,0.7-1.4,1.5-1.4h37.2c0.8,0,1.6,0.6,1.6,1.4v7.7C331.5,37,330.8,37.6,329.9,37.6z"/>
	<path class="st0" d="M370.4,82.5c-2.5,0.5-8.3,1-12.2,1c-9.7,0-18.3-2.5-18.3-16.1V28.6c0-0.8,0.7-1.5,1.5-1.5h9.8
		c0.8,0,1.5,0.7,1.5,1.5v38.8c0,3.9,1.3,5.1,4.8,5.1h12.9c0.8,0,1.5,0.7,1.5,1.5v7C371.9,81.9,371.5,82.3,370.4,82.5z"/>
	<path class="st0" d="M411.4,82.5c-2.6,0.4-6.5,1-14.5,1c-9.7,0-18.2-2.5-18.2-16.1V42.4c0-13.6,8.6-16,18.3-16
		c8.1,0,11.8,0.6,14.5,1c1,0.2,1.5,0.5,1.5,1.5v7c0,0.8-0.7,1.5-1.5,1.5h-15.2c-3.5,0-4.8,1.2-4.8,5.1v6.8h19.4
		c0.8,0,1.5,0.7,1.5,1.5v7.1c0,0.8-0.7,1.5-1.5,1.5h-19.4v8c0,3.9,1.3,5.1,4.8,5.1h15.2c0.8,0,1.5,0.7,1.5,1.5v7
		C412.9,81.9,412.5,82.3,411.4,82.5z"/>
	<path class="st1" d="M456.7,82.2c-1.6,0.5-5.9,1.3-11.2,1.3c-11.4,0-22.2-6-22.2-23.8v-9.5c0-17.8,10.8-23.8,22.2-23.8
		c5.3,0,9.6,0.8,11.2,1.3c1,0.3,1.6,0.6,1.6,1.7v7.3c0,0.9-0.4,1.5-1.4,1.5c-0.1,0-0.1,0-0.2,0c-2.8-0.2-7-0.6-11.1-0.6
		c-5.2,0-9.3,2.7-9.3,12.7v9.5c0,10,4.1,12.7,9.3,12.7c4.1,0,8.3-0.4,11.1-0.6c0.1,0,0.1,0,0.2,0c1,0,1.4,0.6,1.4,1.5v7.3
		C458.4,81.5,457.8,81.9,456.7,82.2z"/>
	<path class="st1" d="M484.2,83.5c-5.9,0-10.3-0.7-14.2-1.6c-0.8-0.2-1.5-0.7-1.5-1.5V73c0-1.1,0.6-1.4,1.3-1.4c0.1,0,0.2,0,0.2,0
		c3.1,0.3,11.3,0.9,14.2,0.9c5.2,0,6.7-1.6,6.7-5.3c0-2.2-1-3.4-5-5.7l-10.3-6.2c-7-4.1-8.8-8.8-8.8-14.3c0-8.3,4.7-14.6,19.2-14.6
		c5.5,0,13,0.9,15.9,1.6c0.6,0.2,1.1,0.5,1.1,1.4V37c0,0.7-0.3,1.3-1.3,1.3c0,0-0.1,0-0.2,0c-2.1-0.2-10.8-0.8-15.9-0.8
		c-4.3,0-5.8,1.3-5.8,4c0,2.1,1,3.1,5,5.3l9.6,5.2c7.8,4.2,10.1,9.1,10.1,15.2C504.6,75,499.4,83.5,484.2,83.5z"/>
	<path class="st1" d="M530.5,83.5c-5.9,0-10.3-0.7-14.2-1.6c-0.8-0.2-1.5-0.7-1.5-1.5V73c0-1.1,0.6-1.4,1.3-1.4c0.1,0,0.2,0,0.2,0
		c3.1,0.3,11.3,0.9,14.2,0.9c5.2,0,6.7-1.6,6.7-5.3c0-2.2-1-3.4-5-5.7L522,55.3c-7-4.1-8.8-8.8-8.8-14.3c0-8.3,4.7-14.6,19.2-14.6
		c5.5,0,13,0.9,15.9,1.6c0.6,0.2,1.1,0.5,1.1,1.4V37c0,0.7-0.3,1.3-1.3,1.3c0,0-0.1,0-0.2,0c-2.1-0.2-10.8-0.8-15.9-0.8
		c-4.3,0-5.8,1.3-5.8,4c0,2.1,1,3.1,5,5.3l9.6,5.2C548.7,56,551,61,551,67C551,75,545.7,83.5,530.5,83.5z"/>
</g>
<g>
	<path class="st2" d="M55.5,54.4L23.1,86.8l-21.5-30c-1.3-1.3-1.3-3.5,0-4.8l21.5-30L55.5,54.4z"/>
	<path class="st3" d="M91.1,90.1l-30,21.5c-1.3,1.3-3.5,1.3-4.8,0l-30-21.5l32.4-32.4L91.1,90.1z"/>
	<path class="st4" d="M115.9,56.8l-21.5,30L61.9,54.4L94.3,22l21.5,30C117.2,53.3,117.2,55.5,115.9,56.8z"/>
	<path class="st1" d="M87.7,2H74.1v8.2h-7V2h-17v8.2h-7V2H29.7c-1.9,0-3.4,1.5-3.4,3.4v13.1h0.2l-0.2,0.2l32.4,32.4l32.4-32.4
		l-0.2-0.2h0.2V5.4C91.1,3.5,89.6,2,87.7,2z"/>
</g>
</svg>
