<?xml version="1.0" encoding="utf-8"?>
<!-- Generator: Adobe Illustrator 19.2.1, SVG Export Plug-In . SVG Version: 6.00 Build 0)  -->
<svg version="1.1" id="Layer_1" xmlns="http://www.w3.org/2000/svg" xmlns:xlink="http://www.w3.org/1999/xlink" x="0px" y="0px"
	 viewBox="0 0 552 115.9" style="enable-background:new 0 0 552 115.9;" xml:space="preserve">
<style type="text/css">
	.st0{fill:#FFFFFF;}
	.st1{fill:#FFC200;}
	.st2{fill:#12637F;}
	.st3{fill:#1B94BF;}
</style>
<g>
	<path class="st0" d="M185.7,80.2c-1.6,0.5-5.9,1.3-11.2,1.3c-11.4,0-22.2-6-22.2-23.8v-9.5c0-17.8,10.8-23.8,22.2-23.8
		c5.3,0,9.6,0.8,11.2,1.3c1,0.3,1.6,0.6,1.6,1.7v7.3c0,0.9-0.5,1.5-1.4,1.5c-0.1,0-0.1,0-0.2,0c-2.9-0.2-7-0.6-11.1-0.6
		c-5.2,0-9.3,2.7-9.3,12.7v9.5c0,10,4.1,12.7,9.3,12.7c4.1,0,8.2-0.4,11.1-0.6c0.1,0,0.1,0,0.2,0c1,0,1.4,0.6,1.4,1.5v7.3
		C187.4,79.5,186.8,79.9,185.7,80.2z"/>
	<path class="st0" d="M238.2,80.8h-9.9c-0.8,0-1.3-0.7-1.3-1.5V61.1h-16.3v18.2c0,0.8-0.6,1.5-1.4,1.5h-9.9c-0.8,0-1.5-0.7-1.5-1.5
		V41c0-13.5,8.2-16.5,18.2-16.5h5.5c10,0,18.1,3,18.1,16.5v38.2C239.7,80.1,239,80.8,238.2,80.8z M226.9,41c0-4.1-1.2-5.4-5.4-5.4
		H216c-4.1,0-5.4,1.3-5.4,5.4v9.4h16.3V41z"/>
	<path class="st0" d="M265.5,81.5c-5.9,0-10.3-0.7-14.2-1.6c-0.8-0.2-1.5-0.7-1.5-1.5V71c0-1.1,0.6-1.4,1.4-1.4c0.1,0,0.1,0,0.2,0
		c3.1,0.3,11.3,0.9,14.2,0.9c5.2,0,6.7-1.6,6.7-5.3c0-2.2-1-3.4-4.9-5.7L257,53.3c-7-4.1-8.8-8.8-8.8-14.3c0-8.2,4.6-14.6,19.2-14.6
		c5.5,0,13,0.9,15.9,1.6c0.6,0.2,1.1,0.5,1.1,1.4V35c0,0.7-0.3,1.3-1.3,1.3c0,0-0.1,0-0.2,0c-2.1-0.2-10.8-0.8-15.9-0.8
		c-4.3,0-5.9,1.3-5.9,4c0,2.1,1,3.1,5,5.3l9.6,5.2C283.6,54,286,59,286,65C286,73,280.7,81.5,265.5,81.5z"/>
	<path class="st0" d="M330.9,35.6h-12.1v43.6c0,0.8-0.7,1.5-1.5,1.5h-9.8c-0.8,0-1.5-0.7-1.5-1.5V35.6h-12.2c-0.8,0-1.5-0.6-1.5-1.4
		v-7.7c0-0.8,0.7-1.4,1.5-1.4h37.2c0.8,0,1.6,0.6,1.6,1.4v7.7C332.5,35,331.8,35.6,330.9,35.6z"/>
	<path class="st0" d="M371.4,80.5c-2.5,0.5-8.3,1-12.2,1c-9.7,0-18.3-2.5-18.3-16.1V26.6c0-0.8,0.7-1.5,1.5-1.5h9.8
		c0.8,0,1.5,0.7,1.5,1.5v38.8c0,3.9,1.3,5.1,4.8,5.1h12.9c0.8,0,1.5,0.7,1.5,1.5v7C372.9,79.9,372.5,80.3,371.4,80.5z"/>
	<path class="st0" d="M412.4,80.5c-2.6,0.4-6.5,1-14.5,1c-9.7,0-18.2-2.5-18.2-16.1V40.4c0-13.6,8.6-16,18.3-16
		c8.1,0,11.8,0.6,14.5,1c1,0.2,1.5,0.5,1.5,1.5v7c0,0.8-0.7,1.5-1.5,1.5h-15.2c-3.5,0-4.8,1.2-4.8,5.1v6.8h19.4
		c0.8,0,1.5,0.7,1.5,1.5v7.1c0,0.8-0.7,1.5-1.5,1.5h-19.4v8c0,3.9,1.3,5.1,4.8,5.1h15.2c0.8,0,1.5,0.7,1.5,1.5v7
		C413.9,79.9,413.5,80.3,412.4,80.5z"/>
	<path class="st1" d="M457.7,80.2c-1.6,0.5-5.9,1.3-11.2,1.3c-11.4,0-22.2-6-22.2-23.8v-9.5c0-17.8,10.8-23.8,22.2-23.8
		c5.3,0,9.6,0.8,11.2,1.3c1,0.3,1.6,0.6,1.6,1.7v7.3c0,0.9-0.4,1.5-1.4,1.5c-0.1,0-0.1,0-0.2,0c-2.8-0.2-7-0.6-11.1-0.6
		c-5.2,0-9.3,2.7-9.3,12.7v9.5c0,10,4.1,12.7,9.3,12.7c4.1,0,8.3-0.4,11.1-0.6c0.1,0,0.1,0,0.2,0c1,0,1.4,0.6,1.4,1.5v7.3
		C459.4,79.5,458.8,79.9,457.7,80.2z"/>
	<path class="st1" d="M485.2,81.5c-5.9,0-10.3-0.7-14.2-1.6c-0.8-0.2-1.5-0.7-1.5-1.5V71c0-1.1,0.6-1.4,1.3-1.4c0.1,0,0.2,0,0.2,0
		c3.1,0.3,11.3,0.9,14.2,0.9c5.2,0,6.7-1.6,6.7-5.3c0-2.2-1-3.4-5-5.7l-10.3-6.2c-7-4.1-8.8-8.8-8.8-14.3c0-8.2,4.7-14.6,19.2-14.6
		c5.5,0,13,0.9,15.9,1.6c0.6,0.2,1.1,0.5,1.1,1.4V35c0,0.7-0.3,1.3-1.3,1.3c0,0-0.1,0-0.2,0c-2.1-0.2-10.8-0.8-15.9-0.8
		c-4.3,0-5.8,1.3-5.8,4c0,2.1,1,3.1,5,5.3l9.6,5.2c7.8,4.2,10.1,9.1,10.1,15.2C505.6,73,500.4,81.5,485.2,81.5z"/>
	<path class="st1" d="M531.5,81.5c-5.9,0-10.3-0.7-14.2-1.6c-0.8-0.2-1.5-0.7-1.5-1.5V71c0-1.1,0.6-1.4,1.3-1.4c0.1,0,0.2,0,0.2,0
		c3.1,0.3,11.3,0.9,14.2,0.9c5.2,0,6.7-1.6,6.7-5.3c0-2.2-1-3.4-5-5.7L523,53.3c-7-4.1-8.8-8.8-8.8-14.3c0-8.2,4.7-14.6,19.2-14.6
		c5.5,0,13,0.9,15.9,1.6c0.6,0.2,1.1,0.5,1.1,1.4V35c0,0.7-0.3,1.3-1.3,1.3c0,0-0.1,0-0.2,0c-2.1-0.2-10.8-0.8-15.9-0.8
		c-4.3,0-5.8,1.3-5.8,4c0,2.1,1,3.1,5,5.3l9.6,5.2C549.7,54,552,59,552,65C552,73,546.7,81.5,531.5,81.5z"/>
</g>
<g>
	<path class="st2" d="M56.5,52.4L24.1,84.8l-21.5-30c-1.3-1.3-1.3-3.5,0-4.8l21.5-30L56.5,52.4z"/>
	<path class="st0" d="M92.1,88.1l-30,21.5c-1.3,1.3-3.5,1.3-4.8,0l-30-21.5l32.4-32.4L92.1,88.1z"/>
	<path class="st3" d="M116.9,54.8l-21.5,30L62.9,52.4L95.3,20l21.5,30C118.2,51.3,118.2,53.5,116.9,54.8z"/>
	<path class="st1" d="M88.7,0H75.1v8.2h-7V0h-17v8.2h-7V0H30.7c-1.9,0-3.4,1.5-3.4,3.4v13.1h0.2l-0.2,0.2l32.4,32.4l32.4-32.4
		l-0.2-0.2h0.2V3.4C92.1,1.5,90.6,0,88.7,0z"/>
</g>
</svg>
